<?xml version="1.0" standalone="no"?>
<!DOCTYPE svg PUBLIC "-//W3C//DTD SVG 20010904//EN"
 "http://www.w3.org/TR/2001/REC-SVG-20010904/DTD/svg10.dtd">
<svg version="1.0" xmlns="http://www.w3.org/2000/svg"
 width="850.000000pt" height="650.000000pt" viewBox="0 0 850.000000 650.000000"
 preserveAspectRatio="xMidYMid meet">

<g transform="translate(0.000000,650.000000) scale(0.100000,-0.100000)"
fill="#000000" stroke="none">
<path d="M4456 6214 c-3 -9 -6 -121 -6 -249 0 -199 2 -236 16 -249 19 -19 38
-20 53 -3 7 9 12 90 13 228 l3 214 216 3 c231 3 248 6 234 52 -6 19 -13 20
-265 20 -226 0 -259 -2 -264 -16z"/>
<path d="M6516 6214 c-3 -8 -1 -24 4 -35 10 -18 24 -19 230 -19 l220 0 2 -221
c3 -199 5 -223 21 -233 12 -8 22 -8 35 0 15 10 17 35 20 245 1 129 0 244 -3
257 l-5 22 -259 0 c-226 0 -260 -2 -265 -16z"/>
<path d="M4806 5884 c-14 -13 -16 -62 -16 -383 0 -272 3 -370 12 -379 17 -17
749 -17 766 0 9 9 12 108 12 385 0 358 -1 373 -19 383 -13 6 -151 10 -380 10
-314 0 -362 -2 -375 -16z m694 -379 l0 -315 -315 0 -315 0 0 308 c0 170 3 312
7 315 3 4 145 7 315 7 l308 0 0 -315z"/>
<path d="M5047 5642 c-14 -15 -17 -41 -17 -136 0 -64 5 -126 10 -137 10 -17
22 -19 143 -19 90 0 137 4 145 12 8 8 12 55 12 145 0 121 -2 133 -19 143 -11
5 -73 10 -139 10 -102 0 -121 -3 -135 -18z"/>
<path d="M5726 5884 c-29 -29 -12 -64 31 -64 31 0 44 47 18 67 -24 17 -30 16
-49 -3z"/>
<path d="M5938 5889 c-17 -9 -18 -38 -18 -382 0 -277 3 -376 12 -385 17 -17
749 -17 766 0 9 9 12 107 12 379 0 321 -2 370 -16 383 -13 14 -61 16 -377 16
-227 0 -369 -4 -379 -11z m692 -384 l0 -315 -315 0 -315 0 0 315 0 315 315 0
315 0 0 -315z"/>
<path d="M6176 5644 c-13 -12 -16 -40 -16 -143 0 -85 4 -131 12 -139 8 -8 54
-12 143 -12 89 0 135 4 143 12 8 8 12 54 12 139 0 103 -3 131 -16 143 -23 23
-255 23 -278 0z"/>
<path d="M5727 5738 c-16 -12 -17 -40 -15 -312 3 -272 5 -300 21 -310 12 -8
22 -8 35 0 15 10 17 38 20 309 2 298 0 325 -32 325 -7 0 -20 -6 -29 -12z"/>
<path d="M2665 5503 c-327 -85 -516 -281 -595 -617 -31 -130 -49 -312 -60
-611 -18 -469 -37 -624 -94 -765 -41 -103 -62 -126 -130 -145 -98 -26 -201
-81 -253 -133 -89 -89 -183 -290 -294 -627 -59 -181 -61 -181 -78 -5 -10 108
-10 106 29 285 16 72 36 202 45 290 9 88 23 192 31 230 23 101 28 178 14 205
-10 18 -18 21 -48 18 -21 -3 -45 -8 -55 -12 -16 -8 -17 13 -17 353 0 385 -2
405 -49 431 -26 14 -606 14 -632 0 -40 -22 -49 -61 -49 -210 0 -77 -2 -140 -4
-140 -2 0 -17 7 -32 15 -60 31 -114 7 -114 -51 0 -39 16 -73 94 -202 51 -84
56 -96 56 -150 l0 -59 -65 15 c-64 16 -65 16 -90 -8 -34 -32 -41 -80 -20 -137
13 -34 15 -48 6 -51 -47 -16 -55 -91 -17 -156 21 -37 22 -44 10 -61 -22 -30
-17 -96 12 -151 32 -60 135 -198 244 -324 45 -52 93 -117 105 -145 28 -61 51
-174 64 -320 10 -108 10 -110 -12 -125 -51 -35 -77 -68 -77 -102 0 -44 43
-266 86 -448 110 -462 239 -726 389 -796 99 -46 177 -25 276 76 130 133 276
413 360 690 12 41 24 70 25 65 2 -6 11 -91 20 -190 11 -121 18 -333 21 -647 3
-258 9 -468 13 -468 15 0 23 294 16 580 -7 297 -24 556 -52 795 -12 102 -17
242 -18 520 -3 372 -9 475 -29 475 -6 0 -7 -45 -3 -122 3 -68 7 -303 8 -523
l2 -400 -47 -140 c-52 -151 -160 -382 -227 -483 -113 -169 -221 -246 -313
-221 -186 50 -325 353 -462 1005 -19 91 -35 175 -35 189 0 22 2 23 32 14 91
-26 216 -5 346 57 74 36 109 61 168 118 l74 73 11 -41 c6 -23 29 -106 51 -186
49 -180 158 -611 158 -627 0 -27 21 -66 31 -56 6 6 -20 126 -75 344 -136 535
-158 612 -184 624 -40 18 -38 62 8 207 109 345 213 582 295 676 35 39 68 62
128 91 96 47 151 61 392 107 l180 34 15 -23 c34 -52 140 -153 200 -192 122
-79 245 -117 380 -117 188 -1 373 89 522 251 l63 70 165 -35 c288 -62 411
-113 493 -203 69 -78 225 -397 352 -721 89 -226 281 -815 324 -990 83 -338 71
-499 -42 -577 -38 -27 -46 -28 -151 -28 -104 0 -119 3 -234 42 -68 24 -181 69
-252 102 -141 64 -370 190 -370 203 0 5 11 25 23 46 50 78 82 206 93 364 6 86
-7 253 -23 294 -7 20 7 12 475 -248 167 -92 308 -168 313 -168 34 0 -28 40
-291 186 l-295 164 -38 87 -39 88 6 310 c3 171 7 321 8 335 2 14 -1 26 -7 28
-20 6 -27 -110 -27 -445 1 -189 -2 -343 -6 -343 -4 0 -31 14 -61 30 -40 22
-63 29 -85 25 -47 -9 -220 125 -334 258 -198 231 -232 256 -382 287 -79 16
-112 31 -287 128 -109 60 -236 130 -283 155 -162 87 -249 109 -276 72 -37 -50
-12 -75 247 -246 l201 -133 -58 -12 c-75 -14 -104 -46 -104 -111 0 -38 5 -50
34 -79 l34 -34 -19 -37 c-25 -49 -24 -75 4 -110 20 -23 22 -33 15 -58 -22 -78
12 -119 162 -195 110 -55 213 -87 352 -111 179 -29 233 -58 472 -249 l123 -98
-9 -53 c-7 -39 -6 -65 4 -94 12 -35 24 -46 106 -95 l92 -55 -2 -170 c-2 -93
-2 -268 0 -387 2 -177 5 -218 16 -218 11 0 13 62 8 380 -3 209 -3 380 0 380 2
0 63 -29 134 -64 170 -84 293 -131 417 -161 169 -41 254 -32 332 37 65 57 80
106 79 253 -1 190 -56 407 -244 958 l-92 268 36 39 c19 21 45 58 57 82 12 23
37 57 55 75 19 18 44 59 56 90 17 44 23 52 26 36 6 -38 22 -26 22 16 0 56 -43
185 -85 254 -19 32 -35 59 -35 61 0 2 24 6 54 9 30 3 65 11 78 18 12 7 28 14
34 15 17 3 64 35 64 43 0 9 22 13 78 12 31 -1 42 3 42 14 0 11 -11 15 -39 15
-124 0 -327 61 -456 137 -393 233 -708 762 -905 1523 -96 374 -159 491 -295
551 -58 26 -125 35 -125 18 0 -7 -21 8 -47 33 -78 77 -124 92 -283 95 -74 1
-144 -1 -155 -4z m314 -517 c28 -4 49 -18 79 -50 49 -53 68 -89 133 -254 87
-222 129 -317 175 -397 45 -81 51 -95 35 -95 -5 0 -16 -3 -25 -6 -12 -5 -16 0
-16 20 0 39 -18 31 -26 -11 -11 -62 -64 -204 -97 -263 -40 -70 -117 -147 -187
-187 -69 -39 -168 -73 -215 -73 -95 0 -287 96 -355 178 -44 53 -115 203 -141
300 -22 81 -39 106 -39 57 l0 -25 -39 19 c-80 41 -124 129 -102 203 17 56 48
72 121 65 60 -7 71 -2 48 21 -9 9 -4 12 23 12 62 0 232 109 347 223 45 44 150
177 219 277 14 20 18 22 21 9 2 -11 17 -19 41 -23z m-1889 -656 c20 -20 20
-33 20 -672 0 -592 -2 -653 -17 -670 -15 -17 -38 -18 -296 -18 -316 0 -317 0
-317 70 0 32 4 39 24 44 76 19 75 107 -1 130 -32 10 -32 58 1 75 37 20 50 58
30 88 -9 14 -25 28 -35 30 -22 6 -26 43 -5 43 20 0 46 39 46 67 0 13 -12 31
-30 45 l-30 22 0 363 c0 350 1 364 20 383 19 19 33 20 295 20 262 0 276 -1
295 -20z m957 -47 c-3 -10 -5 -2 -5 17 0 19 2 27 5 18 2 -10 2 -26 0 -35z
m-10 -210 c-3 -10 -5 -2 -5 17 0 19 2 27 5 18 2 -10 2 -26 0 -35z m-1632 -45
c25 -23 26 -25 23 -136 l-3 -114 -47 79 c-65 107 -85 158 -68 178 18 22 65 18
95 -7z m2800 -486 c20 -49 54 -76 127 -102 l53 -18 -91 -90 c-75 -74 -108 -98
-185 -136 -117 -58 -216 -80 -321 -72 -175 12 -365 110 -474 244 -24 30 -44
58 -44 62 0 5 21 16 48 24 100 34 153 92 168 186 4 24 11 39 18 36 164 -70
217 -81 296 -65 76 16 265 102 325 148 l50 38 6 -106 c4 -67 12 -122 24 -149z
m-1943 43 c9 -20 7 -44 -11 -120 -12 -53 -30 -180 -42 -283 -11 -103 -33 -242
-49 -310 -19 -79 -30 -150 -30 -197 0 -76 26 -244 55 -355 l17 -65 -66 -61
c-106 -99 -252 -164 -368 -164 -43 0 -48 2 -48 23 0 62 -23 302 -36 380 -20
118 -45 181 -96 244 -278 337 -318 395 -318 463 0 71 11 76 132 61 114 -14
124 -17 132 -37 17 -45 -53 -74 -174 -74 -33 0 -60 -4 -60 -9 0 -9 57 -21 103
-21 25 0 27 -3 27 -45 0 -35 6 -52 29 -77 l29 -33 307 0 307 0 29 33 29 32 0
300 0 300 33 20 c42 26 55 25 69 -5z m-825 -17 c64 -26 84 -49 67 -75 -14 -23
-64 -28 -137 -13 -59 11 -84 7 -57 -10 8 -5 39 -14 68 -20 28 -6 52 -16 52
-22 0 -5 -7 -7 -16 -4 -9 3 -36 6 -60 6 -39 0 -47 4 -64 33 -22 35 -26 87 -9
119 9 18 17 20 55 14 25 -3 70 -16 101 -28z m38 -182 c33 -9 40 -16 40 -36 0
-36 -44 -53 -147 -58 -49 -3 -88 -8 -88 -13 0 -12 84 -22 119 -14 27 6 31 4
31 -16 0 -21 -2 -22 -67 -15 -58 5 -71 11 -90 34 -28 33 -39 83 -24 111 11 19
20 21 99 20 48 0 105 -6 127 -13z m1910 -586 c104 -51 530 -286 649 -358 37
-23 72 -42 77 -42 22 0 5 22 -38 50 -55 34 -37 39 38 11 79 -31 113 -58 203
-166 46 -55 108 -125 137 -156 53 -55 236 -196 289 -224 37 -19 41 -31 47
-170 6 -126 -6 -256 -33 -344 l-15 -52 -23 18 c-13 10 -61 50 -107 89 -125
106 -285 222 -351 255 -41 20 -96 36 -181 50 -150 25 -274 66 -391 127 -95 50
-126 80 -126 121 0 55 12 57 93 12 76 -42 97 -49 97 -31 0 5 -32 27 -71 47
-115 62 -149 89 -149 121 0 31 25 72 44 72 7 0 47 -16 89 -35 79 -36 97 -41
97 -26 0 5 -56 37 -124 70 -113 55 -125 63 -136 95 -24 72 23 116 125 116 53
0 65 -4 95 -30 40 -33 30 -37 -50 -15 -67 18 -83 19 -78 3 9 -27 168 -52 190
-30 19 19 -16 47 -301 239 -146 98 -269 185 -274 194 -6 9 -7 24 -3 34 10 26
63 13 181 -45z m-1691 -729 l7 -44 -33 7 c-53 10 -57 24 -20 57 19 17 35 29
37 27 1 -2 5 -23 9 -47z m3251 -170 c5 -17 4 -22 -6 -19 -8 3 -15 18 -17 34
-4 33 11 24 23 -15z m-243 -558 c23 -21 23 -34 -3 -78 -26 -44 -39 -32 -39 36
0 62 10 71 42 42z"/>
<path d="M2993 4700 c-41 -17 -24 -25 50 -25 39 0 80 -4 90 -9 12 -6 17 -4 17
7 0 30 -105 48 -157 27z"/>
<path d="M2816 4478 c-23 -63 -37 -134 -29 -155 3 -10 20 -33 36 -50 29 -31
30 -34 17 -60 -8 -16 -16 -31 -18 -35 -10 -20 28 -5 42 17 24 36 20 57 -19 95
-40 39 -42 55 -15 142 22 70 24 88 11 88 -5 0 -16 -19 -25 -42z"/>
<path d="M2546 4478 c-9 -12 -16 -29 -16 -38 0 -24 29 -60 49 -60 23 0 51 31
51 56 0 28 -28 64 -50 64 -10 0 -26 -10 -34 -22z"/>
<path d="M3032 4488 c-16 -16 -16 -80 0 -96 18 -18 56 -14 68 7 31 58 -25 132
-68 89z"/>
<path d="M2220 4365 c0 -11 44 -65 52 -65 15 0 8 26 -12 48 -19 20 -40 29 -40
17z"/>
<path d="M2630 4061 c0 -26 23 -73 57 -118 30 -40 97 -73 147 -73 47 0 108 31
136 69 31 45 63 122 53 132 -4 4 -42 3 -83 -3 -71 -10 -262 -4 -295 8 -10 4
-15 0 -15 -15z m275 -21 c44 3 82 4 85 2 11 -8 -48 -99 -79 -119 -44 -30 -113
-31 -159 -3 -31 19 -95 106 -88 119 2 3 39 4 83 1 43 -3 114 -3 158 0z"/>
<path d="M520 4035 c0 -45 4 -65 13 -65 9 0 11 -32 9 -135 -2 -90 0 -135 7
-135 7 0 11 47 11 135 l0 135 45 0 45 0 0 65 0 65 -65 0 -65 0 0 -65z m68 -23
c23 2 27 8 25 31 -1 15 2 25 8 22 5 -4 9 -19 9 -36 0 -27 -2 -29 -40 -29 -40
0 -40 0 -38 38 l1 37 4 -33 c4 -29 8 -33 31 -30z"/>
<path d="M940 4035 l0 -66 63 3 62 3 3 63 3 62 -66 0 -65 0 0 -65z m33 10 c-5
-34 -4 -35 25 -35 27 0 31 4 35 33 4 31 4 31 5 -5 2 -38 2 -38 -38 -38 l-40 0
0 40 c0 22 4 40 9 40 6 0 7 -16 4 -35z m44 29 c-3 -3 -12 -4 -19 -1 -8 3 -5 6
6 6 11 1 17 -2 13 -5z"/>
<path d="M663 4068 c3 -10 38 -13 132 -13 94 0 129 3 133 13 3 9 -28 12 -133
12 -105 0 -136 -3 -132 -12z"/>
<path d="M680 4010 c0 -16 7 -20 30 -20 23 0 30 4 30 20 0 16 -7 20 -30 20
-23 0 -30 -4 -30 -20z"/>
<path d="M840 4016 c0 -7 -9 -16 -20 -19 -13 -3 -20 0 -20 9 0 8 -7 14 -15 14
-19 0 -19 -30 -1 -55 12 -17 15 -18 47 -3 19 9 43 18 54 20 12 2 21 13 23 26
3 19 -1 22 -32 22 -24 0 -36 -5 -36 -14z"/>
<path d="M670 3925 l0 -45 45 0 c51 0 66 26 18 32 -22 2 -29 9 -31 31 -6 48
-32 33 -32 -18z"/>
<path d="M727 3953 c-14 -13 -6 -23 18 -23 16 0 25 6 25 15 0 15 -31 21 -43 8z"/>
<path d="M888 3953 c-22 -5 -24 -43 -3 -43 8 0 15 -4 15 -10 0 -5 7 -10 16
-10 11 0 14 6 9 20 -5 14 -2 20 9 20 9 0 16 7 16 15 0 15 -25 18 -62 8z"/>
<path d="M1038 3954 c-5 -4 -8 -83 -8 -175 l0 -169 -177 -2 c-130 -2 -177 -6
-181 -15 -6 -19 377 -19 383 0 8 20 -9 369 -17 361z"/>
<path d="M620 3940 c0 -5 -9 -10 -20 -10 -26 0 -25 -8 3 -30 18 -15 20 -21 10
-31 -27 -27 -14 -39 42 -39 42 0 55 3 55 15 0 10 -10 15 -30 15 -29 0 -30 2
-30 45 0 33 -4 45 -15 45 -8 0 -15 -4 -15 -10z"/>
<path d="M820 3924 c0 -9 7 -14 17 -12 25 5 28 28 4 28 -12 0 -21 -6 -21 -16z"/>
<path d="M965 3922 c-6 -4 -16 -19 -24 -34 -7 -14 -22 -29 -33 -31 -36 -10 -8
-27 43 -27 l49 0 0 50 c0 49 -10 61 -35 42z"/>
<path d="M784 3886 c-4 -17 -13 -26 -25 -26 -10 0 -19 -4 -19 -10 0 -5 9 -10
20 -10 11 0 20 -4 20 -10 0 -5 -13 -10 -30 -10 -16 0 -30 -4 -30 -10 0 -5 13
-10 29 -10 17 0 31 -6 35 -16 8 -21 8 -24 -4 -24 -5 0 -10 7 -10 15 0 8 -7 15
-15 15 -12 0 -15 -14 -15 -70 0 -40 -4 -70 -10 -70 -5 0 -10 11 -10 25 0 18
-5 25 -20 25 -16 0 -20 -7 -20 -35 l0 -35 55 0 c30 0 55 5 55 10 0 6 -4 10
-10 10 -5 0 -10 9 -10 20 0 11 5 20 10 20 6 0 10 7 10 15 0 8 -4 15 -10 15 -5
0 -10 5 -10 10 0 6 9 10 20 10 13 0 19 6 18 18 -1 9 0 37 2 62 2 40 3 42 9 15
3 -17 14 -31 24 -33 14 -3 17 4 17 48 0 49 -1 52 -22 47 -12 -4 -28 -1 -35 4
-9 8 -14 4 -19 -15z"/>
<path d="M885 3810 c4 -6 11 -8 16 -5 14 9 11 15 -7 15 -8 0 -12 -5 -9 -10z"/>
<path d="M930 3805 c0 -10 -10 -15 -30 -15 -16 0 -30 -4 -30 -10 0 -6 28 -10
65 -10 63 0 65 1 65 25 0 22 -4 25 -35 25 -24 0 -35 -5 -35 -15z"/>
<path d="M590 3802 c0 -6 9 -14 20 -17 23 -7 27 -25 5 -25 -8 0 -15 -4 -15
-10 0 -5 6 -10 14 -10 8 0 16 -7 20 -15 7 -19 46 -20 46 -2 0 8 10 13 23 13
13 -1 22 5 22 14 0 9 -9 15 -22 14 -25 -1 -31 11 -10 19 23 8 -2 20 -53 25
-32 3 -50 1 -50 -6z"/>
<path d="M825 3770 c-7 -12 2 -30 16 -30 5 0 9 9 9 20 0 21 -15 27 -25 10z"/>
<path d="M870 3741 c0 -5 -13 -12 -30 -16 -28 -6 -30 -10 -30 -51 0 -37 3 -44
20 -44 11 0 20 7 20 15 0 8 7 15 15 15 20 0 19 20 -2 36 -17 13 -17 13 3 14
20 0 44 17 44 32 0 4 -9 8 -20 8 -11 0 -20 -4 -20 -9z"/>
<path d="M930 3740 c0 -5 9 -10 20 -10 11 0 20 -6 20 -13 0 -18 -24 -67 -32
-67 -5 0 -8 -4 -8 -10 0 -5 16 -10 35 -10 l35 0 0 60 0 60 -35 0 c-19 0 -35
-4 -35 -10z"/>
<path d="M902 3688 c5 -34 38 -37 38 -4 0 20 -5 26 -21 26 -15 0 -20 -5 -17
-22z"/>
<path d="M522 3628 l3 -63 63 -3 62 -3 0 66 0 65 -65 0 -66 0 3 -62z m108 2
l0 -40 -40 0 -40 0 0 40 0 40 40 0 40 0 0 -40z"/>
<path d="M560 3630 c0 -27 3 -30 30 -30 27 0 30 3 30 30 0 27 -3 30 -30 30
-27 0 -30 -3 -30 -30z"/>
<path d="M878 3643 c7 -3 16 -2 19 1 4 3 -2 6 -13 5 -11 0 -14 -3 -6 -6z"/>
<path d="M4806 4964 c-20 -19 -20 -38 -1 -54 23 -19 65 -4 65 23 0 43 -35 60
-64 31z"/>
<path d="M4956 4964 c-9 -8 -16 -21 -16 -28 0 -34 25 -36 325 -34 271 3 299 5
309 21 8 12 8 22 0 35 -10 15 -38 17 -307 20 -259 2 -297 0 -311 -14z"/>
<path d="M5720 4965 c-26 -32 13 -81 48 -59 34 22 22 74 -18 74 -10 0 -23 -7
-30 -15z"/>
<path d="M5932 4968 c-16 -16 -15 -43 2 -57 9 -8 100 -11 311 -9 271 3 299 5
309 21 8 12 8 22 0 35 -10 15 -38 17 -310 20 -225 2 -303 -1 -312 -10z"/>
<path d="M6640 4965 c-26 -32 13 -81 48 -59 34 22 22 74 -18 74 -10 0 -23 -7
-30 -15z"/>
<path d="M4806 4754 c-14 -13 -16 -62 -16 -383 0 -272 3 -370 12 -379 17 -17
749 -17 766 0 17 17 17 749 0 766 -9 9 -107 12 -379 12 -321 0 -370 -2 -383
-16z m694 -379 l0 -315 -315 0 -315 0 0 315 0 315 315 0 315 0 0 -315z"/>
<path d="M5046 4514 c-13 -12 -16 -40 -16 -139 0 -99 3 -127 16 -139 12 -13
40 -16 143 -16 85 0 131 4 139 12 8 8 12 54 12 143 0 89 -4 135 -12 143 -8 8
-54 12 -139 12 -103 0 -131 -3 -143 -16z"/>
<path d="M5721 4756 c-8 -9 -11 -100 -9 -311 3 -271 5 -299 21 -309 12 -8 22
-8 35 0 15 10 17 38 20 309 2 307 0 325 -38 325 -10 0 -23 -6 -29 -14z"/>
<path d="M5932 4758 c-7 -7 -12 -44 -12 -95 0 -72 2 -84 20 -93 14 -8 26 -8
40 0 18 9 20 21 20 93 0 84 -9 107 -40 107 -9 0 -21 -5 -28 -12z"/>
<path d="M6066 4755 c-22 -23 -23 -157 0 -179 36 -37 64 -10 64 61 l0 52 71 3
c55 2 74 7 83 21 8 12 8 22 0 35 -16 25 -194 31 -218 7z"/>
<path d="M6362 4758 c-7 -7 -12 -19 -12 -28 0 -32 23 -40 117 -40 81 0 94 2
103 19 13 25 13 27 -6 45 -19 20 -183 23 -202 4z"/>
<path d="M6641 4756 c-8 -9 -11 -119 -9 -386 3 -343 4 -374 21 -384 12 -8 22
-8 35 0 16 10 17 41 20 384 2 385 1 400 -38 400 -10 0 -23 -6 -29 -14z"/>
<path d="M6216 4624 c-10 -27 -7 -43 13 -54 11 -5 26 -7 35 -4 21 8 30 42 16
59 -16 20 -56 19 -64 -1z"/>
<path d="M6327 4633 c-14 -13 -6 -53 12 -63 29 -15 87 -12 105 6 19 18 19 20
6 45 -9 15 -22 19 -64 19 -29 0 -56 -3 -59 -7z"/>
<path d="M6507 4633 c-12 -12 -7 -50 8 -63 17 -14 51 -5 59 16 13 35 -41 73
-67 47z"/>
<path d="M5932 4508 c-32 -32 18 -87 53 -58 28 23 12 70 -25 70 -9 0 -21 -5
-28 -12z"/>
<path d="M6051 4502 c-16 -29 20 -72 46 -56 11 7 18 23 18 40 0 24 -5 30 -27
32 -18 2 -30 -3 -37 -16z"/>
<path d="M6172 4508 c-35 -35 3 -68 78 -68 75 0 113 33 78 68 -16 16 -140 16
-156 0z"/>
<path d="M6382 4508 c-7 -7 -12 -42 -12 -88 0 -46 5 -81 12 -88 7 -7 44 -12
95 -12 97 0 103 5 103 100 0 95 -6 100 -103 100 -51 0 -88 -5 -95 -12z m118
-88 c0 -15 -7 -20 -25 -20 -18 0 -25 5 -25 20 0 15 7 20 25 20 18 0 25 -5 25
-20z"/>
<path d="M6060 4400 c-26 -26 -12 -60 25 -60 43 0 53 50 14 70 -14 8 -23 6
-39 -10z"/>
<path d="M6172 4398 c-35 -35 3 -68 78 -68 75 0 113 33 78 68 -16 16 -140 16
-156 0z"/>
<path d="M5925 4367 c-11 -44 -1 -119 18 -131 30 -19 52 4 55 59 5 75 -3 95
-38 95 -23 0 -31 -5 -35 -23z"/>
<path d="M6062 4301 c-8 -5 -12 -21 -10 -37 3 -25 7 -29 33 -29 26 0 30 4 33
29 3 27 -10 46 -33 46 -5 0 -16 -4 -23 -9z"/>
<path d="M6172 4298 c-7 -7 -12 -19 -12 -28 0 -30 23 -40 90 -40 84 0 113 25
74 64 -19 19 -134 22 -152 4z"/>
<path d="M6388 4280 c-19 -15 -21 -22 -12 -37 7 -11 23 -18 40 -18 24 0 30 5
32 27 5 39 -28 54 -60 28z"/>
<path d="M6515 4287 c-26 -20 -16 -61 16 -65 29 -3 54 20 46 42 -10 25 -42 37
-62 23z"/>
<path d="M5950 4183 c-8 -3 -18 -11 -22 -17 -13 -18 -9 -161 4 -174 14 -14
156 -16 178 -2 10 6 16 32 18 83 4 66 1 78 -17 96 -17 17 -33 21 -83 20 -35 0
-70 -3 -78 -6z m90 -103 c0 -13 -7 -20 -20 -20 -13 0 -20 7 -20 20 0 13 7 20
20 20 13 0 20 -7 20 -20z"/>
<path d="M6202 4174 c-12 -8 -22 -21 -22 -29 0 -8 10 -21 22 -29 28 -20 58 -4
58 29 0 33 -30 49 -58 29z"/>
<path d="M6378 4183 c-37 -9 -33 -67 5 -77 45 -12 152 -6 175 10 54 38 7 74
-93 73 -38 -1 -78 -3 -87 -6z"/>
<path d="M4472 4164 c-21 -15 -22 -21 -22 -250 0 -143 4 -243 10 -255 10 -18
24 -19 261 -19 l249 0 12 25 c8 19 8 28 -2 40 -10 13 -47 15 -231 15 l-219 0
0 220 c0 203 -1 220 -18 229 -14 7 -25 6 -40 -5z"/>
<path d="M6988 4169 c-16 -9 -18 -31 -18 -229 l0 -220 -220 0 c-207 0 -220 -1
-230 -19 -13 -25 -13 -27 6 -45 13 -14 51 -16 258 -16 175 0 245 3 254 12 9 9
12 79 12 254 0 207 -2 245 -16 258 -18 19 -23 19 -46 5z"/>
<path d="M5720 4045 c-26 -32 13 -81 48 -59 34 22 22 74 -18 74 -10 0 -23 -7
-30 -15z"/>
<path d="M6190 4040 c-22 -40 26 -80 58 -48 17 17 15 55 -4 62 -27 11 -43 7
-54 -14z"/>
<path d="M6362 4048 c-7 -7 -12 -19 -12 -28 0 -32 23 -40 117 -40 82 0 93 2
103 20 8 14 8 26 0 40 -10 18 -21 20 -103 20 -59 0 -97 -4 -105 -12z"/>
<path d="M7031 3178 c-1 -10 -5 -18 -11 -18 -5 0 -10 -5 -10 -12 0 -8 6 -7 16
4 9 9 14 22 11 30 -4 9 -6 7 -6 -4z"/>
<path d="M6972 3148 c-7 -7 -12 -19 -12 -27 0 -13 -2 -13 -9 -3 -6 10 -10 6
-15 -15 -27 -110 -27 -110 -41 -83 -13 24 -13 23 -20 -24 -5 -28 -11 -43 -15
-36 -5 8 -11 0 -15 -21 -7 -29 -9 -31 -16 -14 -4 11 -8 14 -8 7 -1 -7 -8 -20
-16 -28 -8 -9 -15 -26 -15 -38 0 -13 -12 -50 -26 -82 -27 -62 -35 -151 -14
-164 6 -4 9 -13 7 -21 -2 -8 -2 -11 0 -6 3 4 9 5 14 1 5 -3 8 0 7 8 -2 8 7 13
25 13 17 0 34 8 43 19 23 33 16 39 -20 17 -33 -21 -34 -21 -39 -2 -5 22 16 35
43 26 10 -3 24 4 36 17 18 20 18 21 1 15 -11 -4 -16 -3 -12 4 4 6 18 15 32 20
14 5 23 12 20 15 -3 4 -26 -4 -51 -16 -25 -12 -50 -20 -54 -18 -5 1 -3 19 5
38 11 30 13 31 9 7 -3 -24 -1 -27 18 -21 38 12 54 26 21 19 -19 -4 -26 -3 -20
3 6 5 24 12 40 16 22 5 26 4 15 -4 -13 -9 -13 -10 0 -10 9 0 27 14 42 30 24
27 24 30 7 30 -10 0 -19 -4 -19 -8 0 -8 -61 -34 -67 -29 -7 8 24 37 43 40 12
1 32 11 45 20 l24 18 -25 -5 c-23 -5 -23 -4 8 20 17 14 32 31 32 38 0 7 8 24
18 37 10 13 19 35 20 49 1 24 0 25 -14 5 -8 -11 -19 -20 -24 -20 -4 0 -12 -4
-17 -9 -5 -5 -3 -6 5 -2 6 4 12 4 12 -1 0 -4 -14 -16 -31 -25 -17 -10 -28 -22
-24 -27 3 -5 1 -12 -4 -16 -6 -3 -8 4 -6 17 3 13 9 24 15 26 5 2 10 11 10 20
1 21 24 53 42 56 34 6 55 18 55 31 0 12 -5 11 -31 -2 -29 -15 -30 -15 -17 0 7
10 11 17 8 17 -3 0 1 12 8 28 9 16 11 28 5 30 -6 2 -10 10 -10 18 0 17 -12 18
-28 2z m-72 -203 c4 3 6 -5 2 -17 -5 -21 -6 -21 -13 -2 -6 14 -8 9 -8 -19 -1
-26 3 -36 11 -31 7 4 8 3 4 -5 -4 -6 -11 -9 -16 -6 -4 3 -11 -1 -14 -7 -3 -7
-3 1 -1 17 20 132 20 131 23 97 2 -18 7 -30 12 -27z m-43 -27 c-3 -8 -6 -5 -6
6 -1 11 2 17 5 13 3 -3 4 -12 1 -19z m-10 -80 c-3 -8 -6 -5 -6 6 -1 11 2 17 5
13 3 -3 4 -12 1 -19z m-17 -138 c0 -5 -5 -10 -11 -10 -5 0 -7 5 -4 10 3 6 8
10 11 10 2 0 4 -4 4 -10z"/>
<path d="M6906 3065 c-3 -9 -6 -24 -5 -33 0 -9 5 -4 10 12 9 32 6 48 -5 21z"/>
<path d="M6521 2678 c-28 -29 -56 -107 -78 -212 l-17 -84 -29 69 c-41 99 -91
138 -167 130 -24 -3 -96 -90 -134 -161 -63 -119 -97 -276 -132 -597 l-17 -163
-43 0 c-34 0 -51 -7 -79 -32 -52 -45 -128 -210 -226 -488 -45 -129 -103 -290
-129 -357 -27 -68 -44 -121 -40 -118 21 13 105 153 155 257 29 62 92 209 139
327 85 212 132 308 180 366 13 17 27 27 31 23 4 -4 0 -50 -9 -104 -9 -53 -15
-99 -12 -101 2 -3 15 40 27 95 16 69 26 99 35 95 28 -11 29 -6 -42 -297 -29
-119 -67 -216 -106 -275 -16 -24 -27 -45 -25 -48 3 -2 30 24 60 58 61 67 130
191 171 309 15 41 29 82 32 90 8 21 27 -17 59 -116 37 -112 63 -280 76 -475 9
-158 9 -173 -10 -241 -24 -85 -61 -295 -61 -344 0 -28 5 -36 27 -45 15 -5 38
-9 52 -7 21 3 28 12 43 63 24 79 68 288 68 321 0 36 112 359 153 440 37 74
155 240 164 231 3 -3 -11 -74 -31 -157 -45 -186 -63 -304 -76 -491 -10 -148
-2 -429 11 -394 3 11 16 88 28 170 12 83 36 213 52 290 33 153 158 637 166
645 11 10 -8 -239 -31 -436 -28 -227 -50 -484 -42 -491 3 -3 7 5 10 18 3 13
33 141 65 284 78 336 118 541 127 636 6 70 5 78 -15 98 -15 15 -33 21 -65 21
-36 0 -48 5 -64 27 -16 22 -29 27 -75 31 -68 5 -68 5 -147 -100 -33 -44 -60
-75 -60 -70 0 21 44 152 83 247 75 185 191 383 259 440 l33 28 7 -119 c4 -65
10 -148 14 -184 l8 -65 13 120 c13 124 21 170 28 163 2 -2 11 -31 20 -63 12
-43 19 -138 26 -340 8 -258 21 -412 37 -442 4 -6 8 61 8 150 1 89 5 232 10
317 15 256 -5 377 -72 429 l-24 19 32 128 c23 96 31 154 32 224 l1 95 -59 3
c-55 3 -61 1 -93 -30 -50 -48 -112 -138 -181 -261 -33 -59 -62 -102 -65 -95
-3 8 -6 5 -6 -6 -1 -11 -3 -17 -6 -14 -4 3 -3 18 1 33 5 20 9 24 16 13 7 -9 8
-6 5 10 -3 13 1 44 8 70 24 83 51 319 46 399 -1 25 -36 47 -93 57 -30 5 -40 3
-57 -16z m-296 -214 c54 -71 129 -360 105 -405 -12 -22 -13 -32 -1 -25 5 3 11
-1 15 -9 12 -32 25 -399 18 -525 l-7 -134 -32 85 c-32 84 -94 191 -125 217
-26 21 -112 31 -141 15 -35 -18 -77 -13 -77 8 0 9 7 50 15 90 8 41 26 142 40
224 33 186 76 372 105 448 26 69 40 71 85 11z m290 -245 c-10 -99 -22 -179
-27 -179 -4 0 -8 4 -8 8 0 5 -5 46 -11 91 -11 81 -11 85 22 182 19 55 36 94
38 88 2 -6 -5 -92 -14 -190z m370 104 c-2 -10 -4 -65 -4 -122 l-1 -103 -27 8
c-36 10 -83 10 -106 -1 -17 -7 -17 -4 4 36 30 60 121 199 130 199 4 0 6 -8 4
-17z m-298 -245 c-3 -8 -6 -5 -6 6 -1 11 2 17 5 13 3 -3 4 -12 1 -19z m-416
-523 c39 -86 37 -90 -9 -19 -33 50 -43 84 -25 84 2 0 17 -29 34 -65z m192
-417 c-5 -69 -22 -124 -33 -111 -10 10 19 173 30 173 5 0 6 -28 3 -62z m-60
-543 c-3 -63 -65 -331 -81 -347 -5 -5 -26 -6 -47 -2 l-37 7 6 66 c8 71 37 230
56 299 l11 43 47 -3 47 -3 -2 -60z"/>
</g>
</svg>
